<svg version="1.1" id="Layer_1" xmlns="http://www.w3.org/2000/svg" xmlns:xlink="http://www.w3.org/1999/xlink" x="0px" y="0px"
	 width="100%" viewBox="0 0 598 357" enable-background="new 0 0 598 357" xml:space="preserve">
<path fill="#000000" opacity="1.000000" stroke="none" 
	d="
M1.000002,354.000000 
	C1.000000,236.372177 1.000000,118.744362 1.000000,1.058272 
	C200.228668,1.058272 399.457336,1.058272 599.000000,1.058272 
	C599.000000,118.023140 599.000000,235.046555 598.636414,352.495178 
	C596.769409,351.460754 595.203369,350.059448 593.777771,348.527405 
	C591.776794,346.377136 589.880249,344.129700 587.819458,341.620911 
	C583.376221,335.918915 579.052673,330.519836 574.707764,324.830017 
	C574.105286,324.052490 573.524231,323.565704 572.973999,323.050415 
	C573.004883,323.021912 572.926392,323.051575 572.855835,322.719604 
	C565.568726,316.626099 558.352112,310.864594 550.979248,304.791443 
	C543.557068,297.966309 536.291138,291.452850 528.876831,284.640808 
	C525.228271,280.218079 521.728027,276.093903 518.049438,271.663452 
	C514.869934,268.557312 511.868805,265.757416 508.932312,262.545654 
	C508.665070,260.569916 508.269958,259.016357 508.012970,257.440277 
	C507.178162,252.320557 507.398834,246.754181 505.392059,242.154236 
	C500.406952,230.727264 495.501892,219.179443 483.807373,212.184921 
	C475.759644,207.371552 475.705322,206.784561 468.921173,213.587402 
	C467.986115,214.525024 466.843231,215.352005 466.196655,216.463028 
	C464.037811,220.172577 462.122803,219.110596 460.042175,216.426071 
	C457.655396,213.346527 455.235260,210.289093 452.727478,207.307968 
	C448.773132,202.607254 444.195190,198.328537 440.874298,193.225006 
	C437.202271,187.581924 434.655762,181.207550 431.603394,175.159561 
	C430.438629,172.851669 428.814514,170.685806 428.111267,168.249802 
	C424.354431,155.236771 414.337494,148.309433 403.477509,141.937607 
	C396.205170,137.670776 388.829437,133.237473 386.963989,123.884277 
	C386.810669,123.115440 386.353210,122.386757 385.946991,121.692085 
	C382.330811,115.507858 378.445282,109.464287 375.160034,103.109940 
	C373.277924,99.469467 370.786224,99.349503 367.858398,100.736481 
	C364.682953,102.240753 361.575867,104.017143 358.754364,106.101799 
	C356.347412,107.880157 353.405853,109.886353 352.419617,112.452377 
	C349.783417,119.311417 348.051117,126.519760 345.999603,133.600876 
	C344.687653,138.129288 341.376923,140.246658 338.259247,138.624115 
	C335.695709,137.289932 333.008179,136.194595 330.379944,134.983948 
	C325.600647,132.782455 318.828369,131.843781 316.453369,128.110062 
	C311.138245,119.754173 308.114716,109.958878 303.956390,100.841713 
	C301.640381,95.763870 299.921234,89.859207 296.151367,86.126793 
	C290.242432,80.276558 282.584106,76.240204 276.127563,70.880424 
	C271.422852,66.974854 267.658752,67.802086 263.120117,70.905212 
	C258.174683,74.286469 252.637314,76.802536 247.695999,80.188972 
	C243.742645,82.898315 239.688095,85.432053 238.696869,91.228683 
	C237.967712,95.492653 235.029785,99.379257 233.074173,103.433083 
	C230.724442,108.303894 228.236191,113.113670 226.059906,118.060738 
	C223.868835,123.041451 222.060822,128.190109 219.900635,133.185501 
	C219.518341,134.069519 218.306351,134.699188 217.352264,135.214325 
	C211.708344,138.261673 205.835526,140.936569 200.427902,144.351456 
	C196.940033,146.554016 193.870407,149.584778 191.073563,152.662552 
	C188.885391,155.070511 187.404358,158.121048 185.678177,160.779724 
	C179.846359,156.267548 174.568863,152.184265 169.633270,148.365509 
	C168.054169,150.426346 167.277115,151.387604 166.557755,152.390259 
	C165.039185,154.506866 163.342117,156.530075 162.091965,158.797623 
	C159.205688,164.032898 156.606277,169.425461 153.772049,174.690475 
	C150.228607,181.272888 146.291885,187.658585 143.041397,194.378998 
	C140.392807,199.854965 136.278976,201.941940 130.132294,200.778107 
	C127.763191,200.329529 124.472771,200.780441 122.691353,202.194122 
	C120.443184,203.978241 119.110367,207.064362 117.729248,209.765976 
	C112.620529,219.759216 107.679718,229.838181 102.600830,239.846878 
	C102.008820,241.013519 100.949684,241.943115 99.965759,243.293030 
	C96.937019,251.693253 94.049637,259.783020 91.012543,268.209045 
	C88.623596,274.026337 86.384354,279.507416 83.943924,285.265167 
	C72.800751,294.349121 61.858776,303.156372 50.558487,311.997253 
	C43.466419,315.833221 36.660278,319.514618 30.026842,323.484558 
	C26.222101,325.761627 22.697742,328.507202 18.716820,331.164612 
	C13.632449,334.437775 5.873559,335.157776 8.053020,344.331665 
	C5.654207,347.792664 3.327105,350.896332 1.000002,354.000000 
z"/>
<path fill="#653714" opacity="1.000000" stroke="none" 
	d="
M1.000002,354.500000 
	C3.327105,350.896332 5.654207,347.792664 8.288291,344.405945 
	C8.595273,344.122894 9.041208,344.336212 9.172267,344.691132 
	C10.522023,345.364838 11.740052,345.958679 12.959520,345.961639 
	C35.531029,346.016388 58.102795,346.025543 80.674141,345.944458 
	C82.201370,345.938995 83.725754,345.142212 85.695595,344.611389 
	C104.496910,344.293762 122.853737,344.021271 141.211548,343.908142 
	C145.126251,343.884003 149.044510,344.439178 153.428162,344.776245 
	C163.362747,345.263885 172.839050,345.565552 182.296158,346.168365 
	C206.161118,347.689636 230.002991,349.640320 253.883881,350.813202 
	C264.315125,351.325531 274.822144,350.436096 285.289398,350.041809 
	C300.737305,349.459930 316.179291,348.721039 331.625977,348.104218 
	C357.707214,347.062683 383.788757,346.026733 409.872986,345.064056 
	C422.839661,344.585449 435.813110,344.293121 448.781464,343.855194 
	C449.885834,343.817871 450.974518,343.316315 452.533752,343.033813 
	C458.339752,343.033661 463.682495,343.030182 469.330200,343.305450 
	C471.112701,343.720306 472.590118,343.973541 474.067780,343.975006 
	C496.374146,343.997009 518.680542,343.985962 541.456421,343.988586 
	C555.360535,343.995117 568.795654,344.048004 582.229187,343.925995 
	C583.796448,343.911743 585.354858,342.931030 587.165344,342.263641 
	C587.588562,342.060547 587.763855,341.992188 587.939087,341.923828 
	C589.880249,344.129700 591.776794,346.377136 593.777771,348.527405 
	C595.203369,350.059448 596.769409,351.460754 598.636414,352.960205 
	C599.000000,354.666656 599.000000,356.333344 599.000000,358.000000 
	C399.666687,358.000000 200.333374,358.000000 1.000036,358.000000 
	C1.000000,357.000000 1.000000,356.000000 1.000002,354.500000 
z"/>
<path fill="#E1EDF9" opacity="1.000000" stroke="none" 
	d="
M100.107101,242.982590 
	C100.949684,241.943115 102.008820,241.013519 102.600830,239.846878 
	C107.679718,229.838181 112.620529,219.759216 117.729248,209.765976 
	C119.110367,207.064362 120.443184,203.978241 122.691353,202.194122 
	C124.472771,200.780441 127.763191,200.329529 130.132294,200.778107 
	C136.278976,201.941940 140.392807,199.854965 143.041397,194.378998 
	C146.291885,187.658585 150.228607,181.272888 153.772049,174.690475 
	C156.606277,169.425461 159.205688,164.032898 162.091965,158.797623 
	C163.342117,156.530075 165.039185,154.506866 166.557755,152.390259 
	C167.277115,151.387604 168.054169,150.426346 169.633270,148.365509 
	C174.568863,152.184265 179.846359,156.267548 185.678177,160.779724 
	C187.404358,158.121048 188.885391,155.070511 191.073563,152.662552 
	C193.870407,149.584778 196.940033,146.554016 200.427902,144.351456 
	C205.835526,140.936569 211.708344,138.261673 217.352264,135.214325 
	C218.306351,134.699188 219.518341,134.069519 219.900635,133.185501 
	C222.060822,128.190109 223.868835,123.041451 226.059906,118.060738 
	C228.236191,113.113670 230.724442,108.303894 233.074173,103.433083 
	C235.029785,99.379257 237.967712,95.492653 238.696869,91.228683 
	C239.688095,85.432053 243.742645,82.898315 247.695999,80.188972 
	C252.637314,76.802536 258.174683,74.286469 263.120117,70.905212 
	C267.658752,67.802086 271.422852,66.974854 276.127563,70.880424 
	C282.584106,76.240204 290.242432,80.276558 296.151367,86.126793 
	C299.921234,89.859207 301.640381,95.763870 303.956390,100.841713 
	C308.114716,109.958878 311.138245,119.754173 316.453369,128.110062 
	C318.828369,131.843781 325.600647,132.782455 330.379944,134.983948 
	C333.008179,136.194595 335.695709,137.289932 338.259247,138.624115 
	C341.376923,140.246658 344.687653,138.129288 345.999603,133.600876 
	C348.051117,126.519760 349.783417,119.311417 352.419617,112.452377 
	C353.405853,109.886353 356.347412,107.880157 358.754364,106.101799 
	C361.575867,104.017143 364.682953,102.240753 367.858398,100.736481 
	C370.786224,99.349503 373.277924,99.469467 375.160034,103.109940 
	C378.445282,109.464287 382.330811,115.507858 385.946991,121.692085 
	C386.353210,122.386757 386.810669,123.115440 386.963989,123.884277 
	C388.829437,133.237473 396.205170,137.670776 403.477509,141.937607 
	C414.337494,148.309433 424.354431,155.236771 428.111267,168.249802 
	C428.814514,170.685806 430.438629,172.851669 431.603394,175.159561 
	C434.655762,181.207550 437.202271,187.581924 440.874298,193.225006 
	C444.195190,198.328537 448.773132,202.607254 452.727478,207.307968 
	C455.235260,210.289093 457.655396,213.346527 460.042175,216.426071 
	C462.122803,219.110596 464.037811,220.172577 466.196655,216.463028 
	C466.843231,215.352005 467.986115,214.525024 468.921173,213.587402 
	C475.705322,206.784561 475.759644,207.371552 483.807373,212.184921 
	C495.501892,219.179443 500.406952,230.727264 505.392059,242.154236 
	C507.398834,246.754181 507.178162,252.320557 508.012970,257.440277 
	C508.269958,259.016357 508.665070,260.569916 508.616516,262.450500 
	C500.666443,254.843765 493.179535,246.837982 485.454773,239.068726 
	C483.973236,237.578659 481.617218,236.333237 479.559998,236.150101 
	C471.292297,235.414108 462.986237,235.043945 454.686707,234.805649 
	C453.540985,234.772766 452.100830,236.034012 451.259399,237.071243 
	C450.525177,237.976288 450.443176,239.410416 449.796448,241.507614 
	C437.519531,228.519852 425.824371,216.147507 413.730408,203.353271 
	C411.431549,206.900452 409.569916,209.773041 407.337250,213.218124 
	C403.098785,208.011658 398.969635,203.269547 395.249756,198.225586 
	C393.488770,195.837830 391.985931,195.149872 389.049011,196.039856 
	C382.695160,197.965378 376.207092,199.457397 369.746857,201.014587 
	C368.359589,201.348984 366.605652,201.745682 365.448181,201.202515 
	C354.975067,196.288086 344.379913,191.566299 334.252411,186.001938 
	C324.144104,180.448105 318.095917,171.726822 316.874847,159.887207 
	C316.559021,156.825119 316.024445,152.649277 313.985962,151.110672 
	C307.432312,146.164200 300.128662,142.211472 293.018433,137.646576 
	C292.639648,137.256195 292.356659,137.094681 291.953796,136.705658 
	C291.463593,136.458771 291.093201,136.439407 290.722839,136.420044 
	C291.129608,136.634888 291.536346,136.849747 292.024231,137.297913 
	C292.296875,137.823120 292.562653,138.008575 293.048462,138.388428 
	C296.351593,141.876953 299.494324,145.079407 302.669586,148.249252 
	C309.265961,154.834381 309.495941,157.440491 303.987823,165.982025 
	C297.035309,164.011642 289.988068,162.014420 282.940857,160.017212 
	C285.017273,162.993774 287.584198,165.058670 289.848450,167.414520 
	C295.379303,173.169098 301.748260,177.268188 309.722229,178.806076 
	C311.894958,179.225128 314.687439,180.010376 315.815094,181.604202 
	C319.340454,186.587006 322.205963,192.036682 325.188049,197.641495 
	C321.753113,205.497452 318.400482,212.993378 315.211487,220.558304 
	C314.606842,221.992706 314.211853,223.775238 314.465729,225.270538 
	C316.431305,236.847855 318.618683,248.387405 320.616547,259.959534 
	C320.832733,261.211823 320.279541,262.596924 319.943726,263.613525 
	C318.443634,261.633881 317.185699,259.863708 315.705627,258.304382 
	C306.637482,248.750412 298.249390,238.955124 293.755829,226.059967 
	C290.005585,215.298050 285.201324,204.807297 276.758240,196.491348 
	C273.104645,192.892746 270.316589,188.421799 266.712036,184.764282 
	C264.747040,182.770370 262.049896,180.854416 259.404907,180.343903 
	C256.385681,179.761169 255.262772,178.398743 254.353073,175.826294 
	C251.928589,168.970184 249.280960,162.193008 246.567215,154.972549 
	C236.580673,159.506882 237.907059,148.944153 233.025970,145.180313 
	C233.734604,153.752274 234.380692,161.567505 235.087646,170.119278 
	C230.459595,168.476044 226.589096,167.101791 222.718597,165.727539 
	C222.461548,166.117447 222.204483,166.507355 221.947433,166.897263 
	C226.319214,174.609955 227.282394,184.052139 234.450409,190.348907 
	C231.609894,192.877060 228.767441,195.403336 225.647400,198.142578 
	C224.168640,200.847961 222.767365,203.265488 221.801468,205.845993 
	C217.951523,216.131195 214.237167,226.467133 210.122055,236.824310 
	C209.116501,237.962097 207.892212,239.066040 207.904022,240.156586 
	C207.958374,245.178650 208.357422,250.196976 208.706512,256.558899 
	C202.524414,249.835266 197.133347,244.056519 191.880783,238.154526 
	C191.208023,237.398590 191.059570,236.011597 191.001373,234.899506 
	C190.585251,226.950287 190.320602,218.992828 189.866714,211.046051 
	C189.681488,207.802872 189.145615,204.579712 188.744476,201.134445 
	C176.184540,202.875671 164.188889,204.299255 152.304749,206.364502 
	C149.537262,206.845459 146.244904,208.936768 144.763306,211.279541 
	C140.987350,217.250275 135.675140,218.824081 129.209442,219.156860 
	C126.992599,219.270935 124.311584,220.375916 122.775932,221.942871 
	C116.857178,227.982224 111.421402,234.493210 105.551056,240.583008 
	C104.277359,241.904327 101.949455,242.209442 100.107101,242.982590 
z"/>
<path fill="#653614" opacity="1.000000" stroke="none" 
	d="
M50.916801,311.963623 
	C61.858776,303.156372 72.800751,294.349121 84.288330,285.446228 
	C93.422554,285.897034 102.007469,286.536530 110.604218,286.877899 
	C111.744896,286.923248 113.323769,285.709534 114.051788,284.638489 
	C116.853836,280.516144 119.180237,276.061462 122.094292,272.027039 
	C124.576324,268.590698 127.092117,264.750519 130.521454,262.510315 
	C139.279648,256.789124 148.503311,251.765030 157.685898,246.726547 
	C158.972733,246.020447 161.555969,246.141464 162.724457,246.994934 
	C173.310898,254.727432 183.785156,262.618988 194.146042,270.652527 
	C199.606186,274.886200 204.775742,279.494659 210.288971,284.111816 
	C211.521072,282.462616 212.546326,281.183960 213.471771,279.836761 
	C221.379974,268.324677 229.183990,256.739105 237.264648,245.349670 
	C238.390442,243.762924 240.940384,242.070389 242.679840,242.217300 
	C253.564163,243.136551 264.388916,245.307755 275.267212,245.550613 
	C282.025055,245.701477 284.436401,248.961227 286.654602,254.135422 
	C291.331451,265.044739 296.700104,275.482849 306.940796,282.520142 
	C309.588806,284.339844 311.311676,285.405945 314.069366,282.570312 
	C319.164917,277.330719 324.729645,272.550751 330.016937,267.493591 
	C339.509918,258.413757 339.479431,258.397888 351.415985,264.173920 
	C353.058868,264.968903 354.991211,265.308746 356.432159,266.352661 
	C362.057129,270.427643 367.928284,269.826202 373.866394,267.507019 
	C383.515411,263.738464 392.835602,263.639282 401.815857,269.419373 
	C403.066864,270.224609 404.584076,270.613129 405.846527,271.404358 
	C413.313690,276.084564 420.394684,276.880615 427.196045,270.014130 
	C428.903534,268.290283 431.263153,267.068512 433.527985,266.090698 
	C435.063507,265.427765 437.205536,264.948181 438.646515,265.502960 
	C444.323334,267.688477 450.228241,269.459320 453.906219,275.168945 
	C455.848816,278.184570 458.744415,280.721558 461.620239,282.943298 
	C463.039307,284.039642 465.583313,284.678345 467.285309,284.237793 
	C474.842560,282.281769 482.318359,279.980286 489.745361,277.563202 
	C494.506805,276.013641 498.964111,275.723572 503.782990,277.699036 
	C510.391052,280.407990 517.227356,282.578888 524.032166,284.774994 
	C525.555542,285.266663 527.353638,284.907074 529.025269,284.939362 
	C536.291138,291.452850 543.557068,297.966309 550.915771,305.135468 
	C544.610107,310.957275 538.454102,316.641205 529.071411,312.898956 
	C526.008301,311.677216 522.674500,311.117432 519.446472,310.328796 
	C509.441925,307.884644 499.479767,303.756378 489.406799,303.457214 
	C474.333801,303.009552 459.725281,300.441589 444.969604,298.200623 
	C441.580658,297.685944 437.260864,297.394135 434.603485,299.018524 
	C424.530518,305.175964 414.126465,309.142578 402.228424,310.772461 
	C390.353516,312.399261 379.312225,313.202057 368.963623,306.037354 
	C360.904449,300.457703 352.412354,300.509064 343.449768,303.919037 
	C339.480072,305.429413 335.058533,306.731903 330.907959,306.557892 
	C324.659790,306.295959 318.467316,304.667206 312.254944,303.597717 
	C300.398163,301.556519 288.590240,298.217163 276.779327,304.339020 
	C275.066559,305.226807 271.962128,304.086884 269.750000,303.238098 
	C261.058411,299.903076 252.229370,296.785736 243.914948,292.654541 
	C237.711960,289.572449 232.613907,290.261688 227.265305,293.911774 
	C225.213425,295.312042 222.976791,296.471863 220.730133,297.543793 
	C219.590210,298.087646 218.208984,298.547638 216.991638,298.437866 
	C209.890244,297.797485 202.820908,296.675323 195.709976,296.301575 
	C188.486465,295.921906 180.997726,295.082184 174.037033,296.486145 
	C163.329132,298.645874 152.900223,302.330902 142.493866,305.792480 
	C135.849380,308.002686 129.601608,308.337311 122.634903,306.676025 
	C114.879913,304.826721 107.214752,301.213806 98.821533,303.044891 
	C93.145294,304.283264 87.461029,305.501373 81.747093,306.546722 
	C71.483513,308.424438 61.194935,310.165497 50.916801,311.963623 
z"/>
<path fill="#745739" opacity="1.000000" stroke="none" 
	d="
M528.876831,284.640808 
	C527.353638,284.907074 525.555542,285.266663 524.032166,284.774994 
	C517.227356,282.578888 510.391052,280.407990 503.782990,277.699036 
	C498.964111,275.723572 494.506805,276.013641 489.745361,277.563202 
	C482.318359,279.980286 474.842560,282.281769 467.285309,284.237793 
	C465.583313,284.678345 463.039307,284.039642 461.620239,282.943298 
	C458.744415,280.721558 455.848816,278.184570 453.906219,275.168945 
	C450.228241,269.459320 444.323334,267.688477 438.646515,265.502960 
	C437.205536,264.948181 435.063507,265.427765 433.527985,266.090698 
	C431.263153,267.068512 428.903534,268.290283 427.196045,270.014130 
	C420.394684,276.880615 413.313690,276.084564 405.846527,271.404358 
	C404.584076,270.613129 403.066864,270.224609 401.815857,269.419373 
	C392.835602,263.639282 383.515411,263.738464 373.866394,267.507019 
	C367.928284,269.826202 362.057129,270.427643 356.432159,266.352661 
	C354.991211,265.308746 353.058868,264.968903 351.415985,264.173920 
	C339.479431,258.397888 339.509918,258.413757 330.016937,267.493591 
	C324.729645,272.550751 319.164917,277.330719 314.069366,282.570312 
	C311.311676,285.405945 309.588806,284.339844 306.940796,282.520142 
	C296.700104,275.482849 291.331451,265.044739 286.654602,254.135422 
	C284.436401,248.961227 282.025055,245.701477 275.267212,245.550613 
	C264.388916,245.307755 253.564163,243.136551 242.679840,242.217300 
	C240.940384,242.070389 238.390442,243.762924 237.264648,245.349670 
	C229.183990,256.739105 221.379974,268.324677 213.471771,279.836761 
	C212.546326,281.183960 211.521072,282.462616 210.288971,284.111816 
	C204.775742,279.494659 199.606186,274.886200 194.146042,270.652527 
	C183.785156,262.618988 173.310898,254.727432 162.724457,246.994934 
	C161.555969,246.141464 158.972733,246.020447 157.685898,246.726547 
	C148.503311,251.765030 139.279648,256.789124 130.521454,262.510315 
	C127.092117,264.750519 124.576324,268.590698 122.094292,272.027039 
	C119.180237,276.061462 116.853836,280.516144 114.051788,284.638489 
	C113.323769,285.709534 111.744896,286.923248 110.604218,286.877899 
	C102.007469,286.536530 93.422554,285.897034 84.489532,285.169556 
	C86.384354,279.507416 88.623596,274.026337 91.351349,268.208344 
	C93.364929,266.426605 95.023788,265.097626 96.392265,263.517242 
	C102.908440,255.991943 108.870033,247.913345 115.949425,240.970154 
	C122.562737,234.484070 130.500748,229.372742 137.555679,223.307373 
	C149.095306,213.386322 164.183029,212.200317 177.412628,205.675171 
	C179.776276,212.630280 182.395355,218.630371 183.823593,224.901657 
	C186.632889,237.237167 193.045776,247.043259 202.592316,255.117950 
	C206.022156,258.018982 209.018982,261.431976 213.102661,265.496307 
	C212.136169,254.945084 211.304413,245.864685 210.472641,236.784302 
	C214.237167,226.467133 217.951523,216.131195 221.801468,205.845993 
	C222.767365,203.265488 224.168640,200.847961 226.044708,198.158417 
	C231.669876,196.517807 236.571106,194.163696 241.584641,193.893555 
	C246.351730,193.636688 250.484375,192.990875 254.469009,190.342056 
	C255.194824,189.859558 257.501923,190.921173 258.531586,191.866364 
	C265.030334,197.831924 271.536835,203.807388 277.695435,210.116684 
	C280.410370,212.898056 282.782379,216.239731 284.502960,219.725418 
	C290.543274,231.962189 296.172882,244.401169 302.128082,256.681091 
	C302.911346,258.296234 304.451752,260.160614 306.033752,260.655396 
	C310.609711,262.086609 315.385742,262.877930 320.083252,263.920441 
	C320.279541,262.596924 320.832733,261.211823 320.616547,259.959534 
	C318.618683,248.387405 316.431305,236.847855 314.465729,225.270538 
	C314.211853,223.775238 314.606842,221.992706 315.211487,220.558304 
	C318.400482,212.993378 321.753113,205.497452 325.536255,197.556870 
	C342.101562,203.300995 358.179535,209.465805 374.404022,215.686798 
	C376.462494,211.734482 378.363617,208.084366 380.538910,203.907776 
	C392.836487,219.536743 404.830688,234.780121 416.948090,250.180084 
	C419.657043,248.665421 422.121765,247.593918 424.231781,246.040634 
	C428.056641,243.225021 431.816010,242.956558 436.313751,244.535706 
	C443.211609,246.957520 450.594330,248.120056 457.299744,250.938721 
	C466.508392,254.809647 474.095642,254.187683 480.368683,245.922531 
	C480.639221,245.566101 481.176331,245.411957 481.977356,244.930176 
	C484.814911,248.818344 487.564575,252.755417 490.498718,256.549835 
	C492.615051,259.286713 494.514465,262.593262 497.326630,264.305481 
	C502.986816,267.751709 509.172028,270.353729 515.235107,273.095001 
	C515.922546,273.405792 517.215637,272.377197 518.227844,271.969696 
	C521.728027,276.093903 525.228271,280.218079 528.876831,284.640808 
z"/>
<path fill="#7BB64C" opacity="1.000000" stroke="none" 
	d="
M469.025238,343.026733 
	C463.682495,343.030182 458.339752,343.033661 452.059082,342.992126 
	C372.330719,343.276489 293.540375,343.620483 214.749878,343.924622 
	C195.919861,343.997284 177.089264,343.916138 158.259140,343.972412 
	C156.492386,343.977692 154.727097,344.464294 152.961136,344.727417 
	C149.044510,344.439178 145.126251,343.884003 141.211548,343.908142 
	C122.853737,344.021271 104.496910,344.293762 85.207626,344.525177 
	C59.197418,344.472778 34.119312,344.404480 9.041208,344.336212 
	C9.041208,344.336212 8.595273,344.122894 8.360002,344.048584 
	C5.873559,335.157776 13.632449,334.437775 19.180901,331.184265 
	C25.938591,330.740814 31.901745,330.398499 37.865135,330.060394 
	C56.087730,329.027222 74.314095,328.055328 92.531227,326.933594 
	C99.639839,326.495880 106.718117,325.555450 113.827576,325.144287 
	C122.610687,324.636322 131.417404,324.083466 140.203583,324.219086 
	C147.807724,324.336426 155.395416,325.413544 162.994019,326.020996 
	C172.746262,326.800598 182.510361,327.442596 192.254654,328.309113 
	C208.710022,329.772522 224.969284,331.856964 241.554398,327.561523 
	C257.221924,323.503723 273.123016,319.482178 289.688843,320.998352 
	C298.932495,321.844391 308.204956,322.441010 317.476837,322.899323 
	C333.895538,323.710907 350.324127,324.322021 366.747742,325.035583 
	C375.042114,325.395996 383.392822,325.312653 391.613892,326.298401 
	C402.725250,327.630707 413.228149,327.706818 423.338104,321.550293 
	C430.548615,317.159271 438.530273,314.016357 446.245758,310.486908 
	C447.975677,309.695557 450.065369,309.147766 451.930695,309.285217 
	C462.503662,310.064301 473.063599,311.035126 483.618134,312.043579 
	C490.044769,312.657593 496.608978,312.806946 502.841400,314.295471 
	C521.089844,318.653809 539.288452,323.280670 557.317993,328.459167 
	C562.880859,330.056915 566.413635,329.150238 569.649231,324.726410 
	C570.295959,323.842163 571.811462,323.593384 572.926392,323.051575 
	C572.926392,323.051575 573.004883,323.021912 572.978699,323.362000 
	C573.544678,324.174957 574.136902,324.647858 574.729126,325.120758 
	C579.052673,330.519836 583.376221,335.918915 587.819458,341.620911 
	C587.763855,341.992188 587.588562,342.060547 586.711182,342.175842 
	C578.892822,342.223511 571.775330,342.144714 564.660461,342.246185 
	C556.756653,342.358887 548.855225,342.635956 540.488892,342.803101 
	C516.358459,342.852081 492.691864,342.939392 469.025238,343.026733 
z"/>
<path fill="#4D873E" opacity="1.000000" stroke="none" 
	d="
M572.855835,322.719604 
	C571.811462,323.593384 570.295959,323.842163 569.649231,324.726410 
	C566.413635,329.150238 562.880859,330.056915 557.317993,328.459167 
	C539.288452,323.280670 521.089844,318.653809 502.841400,314.295471 
	C496.608978,312.806946 490.044769,312.657593 483.618134,312.043579 
	C473.063599,311.035126 462.503662,310.064301 451.930695,309.285217 
	C450.065369,309.147766 447.975677,309.695557 446.245758,310.486908 
	C438.530273,314.016357 430.548615,317.159271 423.338104,321.550293 
	C413.228149,327.706818 402.725250,327.630707 391.613892,326.298401 
	C383.392822,325.312653 375.042114,325.395996 366.747742,325.035583 
	C350.324127,324.322021 333.895538,323.710907 317.476837,322.899323 
	C308.204956,322.441010 298.932495,321.844391 289.688843,320.998352 
	C273.123016,319.482178 257.221924,323.503723 241.554398,327.561523 
	C224.969284,331.856964 208.710022,329.772522 192.254654,328.309113 
	C182.510361,327.442596 172.746262,326.800598 162.994019,326.020996 
	C155.395416,325.413544 147.807724,324.336426 140.203583,324.219086 
	C131.417404,324.083466 122.610687,324.636322 113.827576,325.144287 
	C106.718117,325.555450 99.639839,326.495880 92.531227,326.933594 
	C74.314095,328.055328 56.087730,329.027222 37.865135,330.060394 
	C31.901745,330.398499 25.938591,330.740814 19.511246,331.061554 
	C22.697742,328.507202 26.222101,325.761627 30.026842,323.484558 
	C36.660278,319.514618 43.466419,315.833221 50.558487,311.997253 
	C61.194935,310.165497 71.483513,308.424438 81.747093,306.546722 
	C87.461029,305.501373 93.145294,304.283264 98.821533,303.044891 
	C107.214752,301.213806 114.879913,304.826721 122.634903,306.676025 
	C129.601608,308.337311 135.849380,308.002686 142.493866,305.792480 
	C152.900223,302.330902 163.329132,298.645874 174.037033,296.486145 
	C180.997726,295.082184 188.486465,295.921906 195.709976,296.301575 
	C202.820908,296.675323 209.890244,297.797485 216.991638,298.437866 
	C218.208984,298.547638 219.590210,298.087646 220.730133,297.543793 
	C222.976791,296.471863 225.213425,295.312042 227.265305,293.911774 
	C232.613907,290.261688 237.711960,289.572449 243.914948,292.654541 
	C252.229370,296.785736 261.058411,299.903076 269.750000,303.238098 
	C271.962128,304.086884 275.066559,305.226807 276.779327,304.339020 
	C288.590240,298.217163 300.398163,301.556519 312.254944,303.597717 
	C318.467316,304.667206 324.659790,306.295959 330.907959,306.557892 
	C335.058533,306.731903 339.480072,305.429413 343.449768,303.919037 
	C352.412354,300.509064 360.904449,300.457703 368.963623,306.037354 
	C379.312225,313.202057 390.353516,312.399261 402.228424,310.772461 
	C414.126465,309.142578 424.530518,305.175964 434.603485,299.018524 
	C437.260864,297.394135 441.580658,297.685944 444.969604,298.200623 
	C459.725281,300.441589 474.333801,303.009552 489.406799,303.457214 
	C499.479767,303.756378 509.441925,307.884644 519.446472,310.328796 
	C522.674500,311.117432 526.008301,311.677216 529.071411,312.898956 
	C538.454102,316.641205 544.610107,310.957275 551.072021,305.447144 
	C558.352112,310.864594 565.568726,316.626099 572.855835,322.719604 
z"/>
<path fill="#A1B6CB" opacity="1.000000" stroke="none" 
	d="
M518.049438,271.663452 
	C517.215637,272.377197 515.922546,273.405792 515.235107,273.095001 
	C509.172028,270.353729 502.986816,267.751709 497.326630,264.305481 
	C494.514465,262.593262 492.615051,259.286713 490.498718,256.549835 
	C487.564575,252.755417 484.814911,248.818344 481.977356,244.930176 
	C481.176331,245.411957 480.639221,245.566101 480.368683,245.922531 
	C474.095642,254.187683 466.508392,254.809647 457.299744,250.938721 
	C450.594330,248.120056 443.211609,246.957520 436.313751,244.535706 
	C431.816010,242.956558 428.056641,243.225021 424.231781,246.040634 
	C422.121765,247.593918 419.657043,248.665421 416.948090,250.180084 
	C404.830688,234.780121 392.836487,219.536743 380.538910,203.907776 
	C378.363617,208.084366 376.462494,211.734482 374.404022,215.686798 
	C358.179535,209.465805 342.101562,203.300995 325.675354,197.220795 
	C322.205963,192.036682 319.340454,186.587006 315.815094,181.604202 
	C314.687439,180.010376 311.894958,179.225128 309.722229,178.806076 
	C301.748260,177.268188 295.379303,173.169098 289.848450,167.414520 
	C287.584198,165.058670 285.017273,162.993774 282.940857,160.017212 
	C289.988068,162.014420 297.035309,164.011642 303.987823,165.982025 
	C309.495941,157.440491 309.265961,154.834381 302.669586,148.249252 
	C299.494324,145.079407 296.351593,141.876953 293.102905,138.336975 
	C293.011658,137.984695 293.114258,137.875458 293.114258,137.875458 
	C300.128662,142.211472 307.432312,146.164200 313.985962,151.110672 
	C316.024445,152.649277 316.559021,156.825119 316.874847,159.887207 
	C318.095917,171.726822 324.144104,180.448105 334.252411,186.001938 
	C344.379913,191.566299 354.975067,196.288086 365.448181,201.202515 
	C366.605652,201.745682 368.359589,201.348984 369.746857,201.014587 
	C376.207092,199.457397 382.695160,197.965378 389.049011,196.039856 
	C391.985931,195.149872 393.488770,195.837830 395.249756,198.225586 
	C398.969635,203.269547 403.098785,208.011658 407.337250,213.218124 
	C409.569916,209.773041 411.431549,206.900452 413.730408,203.353271 
	C425.824371,216.147507 437.519531,228.519852 449.796448,241.507614 
	C450.443176,239.410416 450.525177,237.976288 451.259399,237.071243 
	C452.100830,236.034012 453.540985,234.772766 454.686707,234.805649 
	C462.986237,235.043945 471.292297,235.414108 479.559998,236.150101 
	C481.617218,236.333237 483.973236,237.578659 485.454773,239.068726 
	C493.179535,246.837982 500.666443,254.843765 508.551880,262.862366 
	C511.868805,265.757416 514.869934,268.557312 518.049438,271.663452 
z"/>
<path fill="#A1B4C9" opacity="1.000000" stroke="none" 
	d="
M210.122055,236.824310 
	C211.304413,245.864685 212.136169,254.945084 213.102661,265.496307 
	C209.018982,261.431976 206.022156,258.018982 202.592316,255.117950 
	C193.045776,247.043259 186.632889,237.237167 183.823593,224.901657 
	C182.395355,218.630371 179.776276,212.630280 177.412628,205.675171 
	C164.183029,212.200317 149.095306,213.386322 137.555679,223.307373 
	C130.500748,229.372742 122.562737,234.484070 115.949425,240.970154 
	C108.870033,247.913345 102.908440,255.991943 96.392265,263.517242 
	C95.023788,265.097626 93.364929,266.426605 91.501060,267.872131 
	C94.049637,259.783020 96.937019,251.693253 99.965759,243.293030 
	C101.949455,242.209442 104.277359,241.904327 105.551056,240.583008 
	C111.421402,234.493210 116.857178,227.982224 122.775932,221.942871 
	C124.311584,220.375916 126.992599,219.270935 129.209442,219.156860 
	C135.675140,218.824081 140.987350,217.250275 144.763306,211.279541 
	C146.244904,208.936768 149.537262,206.845459 152.304749,206.364502 
	C164.188889,204.299255 176.184540,202.875671 188.744476,201.134445 
	C189.145615,204.579712 189.681488,207.802872 189.866714,211.046051 
	C190.320602,218.992828 190.585251,226.950287 191.001373,234.899506 
	C191.059570,236.011597 191.208023,237.398590 191.880783,238.154526 
	C197.133347,244.056519 202.524414,249.835266 208.706512,256.558899 
	C208.357422,250.196976 207.958374,245.178650 207.904022,240.156586 
	C207.892212,239.066040 209.116501,237.962097 210.122055,236.824310 
z"/>
<path fill="#4D873E" opacity="1.000000" stroke="none" 
	d="
M574.707764,324.830017 
	C574.136902,324.647858 573.544678,324.174957 572.947876,323.390503 
	C573.524231,323.565704 574.105286,324.052490 574.707764,324.830017 
z"/>
<path fill="#4F853D" opacity="1.000000" stroke="none" 
	d="
M153.428162,344.776245 
	C154.727097,344.464294 156.492386,343.977692 158.259140,343.972412 
	C177.089264,343.916138 195.919861,343.997284 214.749878,343.924622 
	C293.540375,343.620483 372.330719,343.276489 451.595825,342.988770 
	C450.974518,343.316315 449.885834,343.817871 448.781464,343.855194 
	C435.813110,344.293121 422.839661,344.585449 409.872986,345.064056 
	C383.788757,346.026733 357.707214,347.062683 331.625977,348.104218 
	C316.179291,348.721039 300.737305,349.459930 285.289398,350.041809 
	C274.822144,350.436096 264.315125,351.325531 253.883881,350.813202 
	C230.002991,349.640320 206.161118,347.689636 182.296158,346.168365 
	C172.839050,345.565552 163.362747,345.263885 153.428162,344.776245 
z"/>
<path fill="#642E11" opacity="1.000000" stroke="none" 
	d="
M9.172267,344.691132 
	C34.119312,344.404480 59.197418,344.472778 84.763489,344.627258 
	C83.725754,345.142212 82.201370,345.938995 80.674141,345.944458 
	C58.102795,346.025543 35.531029,346.016388 12.959520,345.961639 
	C11.740052,345.958679 10.522023,345.364838 9.172267,344.691132 
z"/>
<path fill="#63220C" opacity="1.000000" stroke="none" 
	d="
M540.952759,342.841461 
	C548.855225,342.635956 556.756653,342.358887 564.660461,342.246185 
	C571.775330,342.144714 578.892822,342.223511 586.463257,342.310547 
	C585.354858,342.931030 583.796448,343.911743 582.229187,343.925995 
	C568.795654,344.048004 555.360535,343.995117 541.451294,343.703247 
	C540.968689,343.221832 540.960754,343.031647 540.952759,342.841461 
z"/>
<path fill="#631208" opacity="1.000000" stroke="none" 
	d="
M540.488892,342.803101 
	C540.960754,343.031647 540.968689,343.221832 540.981812,343.697357 
	C518.680542,343.985962 496.374146,343.997009 474.067780,343.975006 
	C472.590118,343.973541 471.112701,343.720306 469.330200,343.305481 
	C492.691864,342.939392 516.358459,342.852081 540.488892,342.803101 
z"/>
<path fill="#A1B6CB" opacity="1.000000" stroke="none" 
	d="
M319.943726,263.613525 
	C315.385742,262.877930 310.609711,262.086609 306.033752,260.655396 
	C304.451752,260.160614 302.911346,258.296234 302.128082,256.681091 
	C296.172882,244.401169 290.543274,231.962189 284.502960,219.725418 
	C282.782379,216.239731 280.410370,212.898056 277.695435,210.116684 
	C271.536835,203.807388 265.030334,197.831924 258.531586,191.866364 
	C257.501923,190.921173 255.194824,189.859558 254.469009,190.342056 
	C250.484375,192.990875 246.351730,193.636688 241.584641,193.893555 
	C236.571106,194.163696 231.669876,196.517807 226.322266,197.945450 
	C228.767441,195.403336 231.609894,192.877060 234.450409,190.348907 
	C227.282394,184.052139 226.319214,174.609955 221.947433,166.897263 
	C222.204483,166.507355 222.461548,166.117447 222.718597,165.727539 
	C226.589096,167.101791 230.459595,168.476044 235.087646,170.119278 
	C234.380692,161.567505 233.734604,153.752274 233.025970,145.180313 
	C237.907059,148.944153 236.580673,159.506882 246.567215,154.972549 
	C249.280960,162.193008 251.928589,168.970184 254.353073,175.826294 
	C255.262772,178.398743 256.385681,179.761169 259.404907,180.343903 
	C262.049896,180.854416 264.747040,182.770370 266.712036,184.764282 
	C270.316589,188.421799 273.104645,192.892746 276.758240,196.491348 
	C285.201324,204.807297 290.005585,215.298050 293.755829,226.059967 
	C298.249390,238.955124 306.637482,248.750412 315.705627,258.304382 
	C317.185699,259.863708 318.443634,261.633881 319.943726,263.613525 
z"/>
<path fill="#A1B6CB" opacity="1.000000" stroke="none" 
	d="
M291.943115,137.064606 
	C291.536346,136.849747 291.129608,136.634888 290.722839,136.420044 
	C291.093201,136.439407 291.463593,136.458771 291.918823,136.738312 
	C292.003723,136.998489 291.943115,137.064606 291.943115,137.064606 
z"/>
<path fill="#A1B6CB" opacity="1.000000" stroke="none" 
	d="
M292.957214,138.036148 
	C292.562653,138.008575 292.296875,137.823120 292.024231,137.297913 
	C291.943115,137.064606 292.003723,136.998489 292.038696,136.965820 
	C292.356659,137.094681 292.639648,137.256195 293.018433,137.646576 
	C293.114258,137.875458 293.011658,137.984695 292.957214,138.036148 
z"/>
</svg>